# xmcd CD database file
#
# Track frame offsets:
#	150
#	9702
#	23612
#	41087
#	52002
#	63207
#	82730
#	94050
#	107415
#	124487
#
# Disc length: 1812 seconds
#
# Revision: 2
# Processed by: cddbd v1.4PL0 Copyright (c) Steve Scherf et al.
# Submitted via: CDex 1.51
#
DISCID=7607120a
DTITLE=Ricky Skaggs - Family and Friends
DYEAR=1986
DGENRE=Bluegrass
TTITLE0=Lost and I'll Never Find the Way
TTITLE1=Two Different Worlds
TTITLE2=River of Memory
TTITLE3=Talk About Sufferin'
TTITLE4=Think of What You've Done
TTITLE5=Toy Heart
TTITLE6=Hallelujah I'm Ready
TTITLE7=Say, Won't You Be Mine
TTITLE8=Won't It Be Wonderful There
TTITLE9=River of Jordan
EXTD=YEAR: 1986
EXTT0=
EXTT1=
EXTT2=
EXTT3=
EXTT4=
EXTT5=
EXTT6=
EXTT7=
EXTT8=
EXTT9=
PLAYORDER=
